HIERARCHY
ROOT Zhanghao:Solving:Hips
{
	OFFSET 0.000000 0.000000 0.000000
	CHANNELS 6 Xposition Yposition Zposition Xrotation Yrotation Zrotation
	JOINT Zhanghao:Solving:Spine
	{
		OFFSET 0.000000 -9.563771 2.098718
		CHANNELS 6 Xposition Yposition Zposition Xrotation Yrotation Zrotation
		JOINT Zhanghao:Solving:Spine1
		{
			OFFSET 0.000000 -9.562875 1.686196
			CHANNELS 6 Xposition Yposition Zposition Xrotation Yrotation Zrotation
			JOINT Zhanghao:Solving:Spine2
			{
				OFFSET 0.000000 -9.673449 0.846319
				CHANNELS 6 Xposition Yposition Zposition Xrotation Yrotation Zrotation
				JOINT Zhanghao:Solving:Spine3
				{
					OFFSET 0.000000 -9.710396 0.000000
					CHANNELS 6 Xposition Yposition Zposition Xrotation Yrotation Zrotation
					JOINT Zhanghao:Solving:Neck
					{
						OFFSET 0.000000 -12.484798 -1.248478
						CHANNELS 6 Xposition Yposition Zposition Xrotation Yrotation Zrotation
						JOINT Zhanghao:Solving:Neck1
						{
							OFFSET 0.000000 -5.748112 -0.502893
							CHANNELS 6 Xposition Yposition Zposition Xrotation Yrotation Zrotation
							JOINT Zhanghao:Solving:Head
							{
								OFFSET 0.000000 -5.682407 -1.001961
								CHANNELS 6 Xposition Yposition Zposition Xrotation Yrotation Zrotation
								JOINT Zhanghao:Solving:HeadEnd
								{
									OFFSET 0.000000 -9.728077 0.000002
									CHANNELS 6 Xposition Yposition Zposition Xrotation Yrotation Zrotation
									End Site
									{
										OFFSET 0.000000 -9.728081 0.000002
									}
								}
							}
						}
					}
					JOINT Zhanghao:Solving:RightShoulder
					{
						OFFSET 0.000000 -8.917713 -5.270916
						CHANNELS 6 Xposition Yposition Zposition Xrotation Yrotation Zrotation
						JOINT Zhanghao:Solving:RightArm
						{
							OFFSET -18.341640 -0.000008 0.000000
							CHANNELS 6 Xposition Yposition Zposition Xrotation Yrotation Zrotation
							JOINT Zhanghao:Solving:RightForeArm
							{
								OFFSET -27.519978 -0.000008 0.000000
								CHANNELS 6 Xposition Yposition Zposition Xrotation Yrotation Zrotation
								JOINT Zhanghao:Solving:RightHand
								{
									OFFSET -22.582626 -0.000008 0.000000
									CHANNELS 6 Xposition Yposition Zposition Xrotation Yrotation Zrotation
									JOINT Zhanghao:Solving:RightHandThumb1
									{
										OFFSET -4.292824 2.781349 -3.192099
										CHANNELS 6 Xposition Yposition Zposition Xrotation Yrotation Zrotation
										End Site
										{
											OFFSET -6.150612 -0.000004 -6.207481
										}
									}
									JOINT Zhanghao:Solving:RightHandMiddle1
									{
										OFFSET -11.447525 -0.000004 0.073382
										CHANNELS 6 Xposition Yposition Zposition Xrotation Yrotation Zrotation
										End Site
										{
											OFFSET -8.738586 -0.000004 0.000000
										}
									}
								}
							}
						}
					}
					JOINT Zhanghao:Solving:LeftShoulder
					{
						OFFSET 0.000000 -8.917713 -5.270916
						CHANNELS 6 Xposition Yposition Zposition Xrotation Yrotation Zrotation
						JOINT Zhanghao:Solving:LeftArm
						{
							OFFSET 18.341640 -0.000008 0.000000
							CHANNELS 6 Xposition Yposition Zposition Xrotation Yrotation Zrotation
							JOINT Zhanghao:Solving:LeftForeArm
							{
								OFFSET 27.519978 -0.000008 0.000000
								CHANNELS 6 Xposition Yposition Zposition Xrotation Yrotation Zrotation
								JOINT Zhanghao:Solving:LeftHand
								{
									OFFSET 22.582626 -0.000008 0.000000
									CHANNELS 6 Xposition Yposition Zposition Xrotation Yrotation Zrotation
									JOINT Zhanghao:Solving:LeftHandThumb1
									{
										OFFSET 4.292824 2.781349 -3.192099
										CHANNELS 6 Xposition Yposition Zposition Xrotation Yrotation Zrotation
										End Site
										{
											OFFSET 6.150612 -0.000004 -6.207481
										}
									}
									JOINT Zhanghao:Solving:LeftHandMiddle1
									{
										OFFSET 11.447525 -0.000004 0.073382
										CHANNELS 6 Xposition Yposition Zposition Xrotation Yrotation Zrotation
										End Site
										{
											OFFSET 8.738586 -0.000004 0.000000
										}
									}
								}
							}
						}
					}
				}
			}
		}
	}
	JOINT Zhanghao:Solving:RightUpLeg
	{
		OFFSET -9.107882 0.000000 0.000000
		CHANNELS 6 Xposition Yposition Zposition Xrotation Yrotation Zrotation
		JOINT Zhanghao:Solving:RightLeg
		{
			OFFSET 0.000000 38.746075 -0.000006
			CHANNELS 6 Xposition Yposition Zposition Xrotation Yrotation Zrotation
			JOINT Zhanghao:Solving:RightFoot
			{
				OFFSET 0.000000 37.141575 -0.000006
				CHANNELS 6 Xposition Yposition Zposition Xrotation Yrotation Zrotation
				JOINT Zhanghao:Solving:RightForeFoot
				{
					OFFSET 0.000000 3.208229 -0.000000
					CHANNELS 6 Xposition Yposition Zposition Xrotation Yrotation Zrotation
					JOINT Zhanghao:Solving:RightToeBase
					{
						OFFSET 0.000000 0.000000 -12.564445
						CHANNELS 6 Xposition Yposition Zposition Xrotation Yrotation Zrotation
						JOINT Zhanghao:Solving:RightToeBaseEnd
						{
							OFFSET 0.000000 0.000000 -4.358174
							CHANNELS 6 Xposition Yposition Zposition Xrotation Yrotation Zrotation
							End Site
							{
								OFFSET 0.000000 -4.358177 0.000000
							}
						}
					}
				}
			}
		}
	}
	JOINT Zhanghao:Solving:LeftUpLeg
	{
		OFFSET 9.107882 0.000000 0.000000
		CHANNELS 6 Xposition Yposition Zposition Xrotation Yrotation Zrotation
		JOINT Zhanghao:Solving:LeftLeg
		{
			OFFSET 0.000000 38.746075 -0.000006
			CHANNELS 6 Xposition Yposition Zposition Xrotation Yrotation Zrotation
			JOINT Zhanghao:Solving:LeftFoot
			{
				OFFSET 0.000000 37.141575 -0.000006
				CHANNELS 6 Xposition Yposition Zposition Xrotation Yrotation Zrotation
				JOINT Zhanghao:Solving:LeftForeFoot
				{
					OFFSET 0.000000 3.208229 -0.000000
					CHANNELS 6 Xposition Yposition Zposition Xrotation Yrotation Zrotation
					JOINT Zhanghao:Solving:LeftToeBase
					{
						OFFSET 0.000000 0.000000 -12.564445
						CHANNELS 6 Xposition Yposition Zposition Xrotation Yrotation Zrotation
						JOINT Zhanghao:Solving:LeftToeBaseEnd
						{
							OFFSET 0.000000 0.000000 -4.448388
							CHANNELS 6 Xposition Yposition Zposition Xrotation Yrotation Zrotation
							End Site
							{
								OFFSET 0.000000 -4.448387 0.000000
							}
						}
					}
				}
			}
		}
	}
}
MOTION
Frames: 4
Frame Time: 0.041667
-0.223173 -183.933777 -80.875763 97.582503 -5.003773 -3.097338 -0.000001 -9.563776 2.098714 29.667367 1.397519 1.048059 -0.000001 -9.562853 1.686177 5.843596 0.090938 0.022433 -0.000000 -9.673463 0.846346 2.434818 -0.341971 -2.215876 -0.000001 -9.710420 -0.000009 -4.793807 0.194092 -1.691063 -0.000001 -12.484827 -1.248531 -9.431494 1.015457 0.014330 -0.000001 -5.748099 -0.502876 -1.511029 5.830314 2.323357 0.000002 -5.682446 -1.001968 -0.305878 0.300274 0.812471 0.000001 -9.728085 -0.000009 -0.000002 0.000000 -0.000000 -0.000001 -8.917740 -5.270957 -0.000001 14.117070 8.926225 -18.341642 0.000018 -0.000008 -31.432339 -27.050896 -43.623578 -27.519985 -0.000018 0.000001 -28.181685 -3.537544 -1.893451 -22.582605 -0.000003 0.000001 0.885227 -3.180617 15.561941 -4.292821 2.781327 -3.192116 0.000003 0.000014 -0.000006 -11.447524 -0.000035 0.073374 0.000004 0.000001 0.000001 0.000001 -8.917744 -5.270957 0.000004 -8.859702 -7.092964 18.341640 -0.000023 0.000009 -28.687010 35.902681 39.683454 27.519974 -0.000020 -0.000006 -11.603905 9.427651 1.926435 22.582632 0.000007 -0.000002 0.148516 2.313837 -3.673458 4.292823 2.781377 -3.192073 -0.000003 0.000002 -0.000001 11.447524 0.000021 0.073408 -0.000000 0.000005 -0.000001 -9.107880 0.000018 0.000033 -27.280592 35.380626 15.121045 -0.000004 38.746094 -0.000031 3.721025 -0.000001 0.000000 -0.000000 37.141567 -0.000016 9.260623 16.199848 -16.751667 -0.000014 3.208237 -0.000001 0.000001 -0.000009 -0.000002 0.000039 -0.000005 -12.564447 19.992911 0.000003 0.000003 -0.000001 -0.000006 -4.358165 0.000004 0.000004 0.000000 9.107882 0.000008 -0.000006 -22.961312 -14.114767 1.603053 0.000003 38.746109 -0.000014 15.953244 -0.000005 0.000001 0.000001 37.141598 -0.000037 -3.942293 -18.110697 1.056035 0.000029 3.208221 0.000025 -0.000001 0.000005 -0.000000 -0.000004 -0.000008 -12.564466 18.427109 0.000000 -0.000000 -0.000025 -0.000015 -4.448420 0.000000 0.000003 -0.000000 
-0.190405 -184.132965 -80.805542 98.023098 -5.031391 -3.058967 -0.000001 -9.563763 2.098752 29.636703 1.423535 1.064407 0.000002 -9.562885 1.686201 6.021632 0.095760 0.037610 -0.000000 -9.673457 0.846299 2.641111 -0.330183 -2.328681 -0.000001 -9.710396 0.000001 -4.962679 0.188406 -1.696031 -0.000000 -12.484816 -1.248435 -9.468229 0.988710 -0.071180 -0.000002 -5.748106 -0.502896 -1.628681 5.737577 2.436644 0.000003 -5.682445 -1.001963 -0.436711 0.288437 0.854863 -0.000001 -9.728069 0.000007 0.000002 -0.000000 0.000000 -0.000001 -8.917736 -5.270879 -0.000011 13.837344 8.824167 -18.341637 -0.000016 -0.000004 -31.709730 -27.444030 -43.859828 -27.520000 -0.000008 -0.000003 -28.328071 -3.987350 -2.146733 -22.582624 0.000006 0.000019 0.915903 -3.331080 15.383688 -4.292794 2.781359 -3.192109 -0.000000 0.000002 -0.000000 -11.447511 0.000002 0.073400 0.000000 0.000001 -0.000001 0.000000 -8.917736 -5.270879 -0.000013 -8.617917 -7.068622 18.341639 0.000008 -0.000014 -29.703878 35.960714 40.627673 27.520002 -0.000019 0.000004 -12.367191 9.142812 1.995381 22.582628 -0.000003 0.000005 0.165909 2.723487 -3.487413 4.292826 2.781342 -3.192122 0.000002 -0.000009 0.000012 11.447529 -0.000012 0.073354 -0.000000 -0.000003 0.000004 -9.107882 -0.000011 0.000072 -28.113311 35.293992 15.263255 0.000015 38.746090 -0.000023 4.110801 0.000002 0.000001 -0.000014 37.141575 0.000004 9.099406 16.249302 -16.582519 0.000014 3.208236 -0.000001 0.000000 -0.000008 0.000001 0.000001 -0.000001 -12.564443 19.932367 0.000001 -0.000002 0.000006 -0.000007 -4.358166 0.000004 0.000004 0.000000 9.107882 0.000002 0.000037 -23.850090 -14.558786 1.500197 0.000008 38.746090 0.000007 16.597020 -0.000001 0.000001 0.000006 37.141582 0.000017 -4.365967 -18.291672 0.472142 -0.000021 3.208229 0.000035 0.000000 0.000003 -0.000000 -0.000002 0.000003 -12.564468 18.408685 -0.000000 0.000002 0.000004 0.000001 -4.448371 0.000002 0.000004 -0.000001 
-0.155040 -184.324402 -80.733330 98.491581 -5.073903 -2.993818 0.000002 -9.563789 2.098725 29.642598 1.465772 1.057938 -0.000001 -9.562883 1.686190 6.136594 0.099642 0.037747 -0.000002 -9.673424 0.846352 2.780883 -0.329474 -2.447418 0.000001 -9.710398 0.000031 -5.097772 0.175560 -1.683179 0.000000 -12.484809 -1.248467 -9.497505 0.962594 -0.129927 -0.000001 -5.748121 -0.502883 -1.749279 5.642724 2.502774 -0.000001 -5.682388 -1.001955 -0.564963 0.279386 0.874933 -0.000001 -9.728062 -0.000012 -0.000001 0.000000 -0.000000 0.000000 -8.917728 -5.270906 -0.000005 13.538278 8.634676 -18.341639 -0.000027 0.000029 -31.752655 -27.986770 -43.879905 -27.519985 -0.000003 0.000013 -28.741272 -4.445615 -2.434128 -22.582623 0.000022 -0.000001 0.940295 -3.456402 15.229053 -4.292833 2.781365 -3.192102 0.000002 0.000009 -0.000002 -11.447536 0.000005 0.073400 0.000003 0.000002 0.000004 0.000001 -8.917732 -5.270906 -0.000005 -8.342657 -7.009226 18.341625 -0.000029 -0.000029 -30.674059 36.014795 41.522182 27.519970 -0.000004 -0.000017 -13.160493 8.783098 2.044756 22.582619 -0.000005 0.000029 0.179763 3.121366 -3.297604 4.292844 2.781348 -3.192111 -0.000002 -0.000003 0.000006 11.447534 -0.000023 0.073365 -0.000002 -0.000000 0.000001 -9.107880 -0.000010 0.000021 -28.976500 35.262750 15.401528 -0.000011 38.746059 0.000019 4.507326 -0.000003 0.000001 -0.000018 37.141575 0.000015 8.936834 16.292511 -16.404409 0.000034 3.208214 -0.000005 0.000003 -0.000002 -0.000002 0.000047 0.000018 -12.564447 19.911810 -0.000002 -0.000002 0.000002 -0.000015 -4.358147 0.000003 0.000003 -0.000001 9.107884 -0.000017 -0.000000 -24.771460 -15.008326 1.365969 -0.000001 38.746082 0.000009 17.242464 0.000000 0.000000 0.000002 37.141590 -0.000011 -4.810565 -18.595050 -0.131768 -0.000023 3.208229 -0.000031 0.000000 -0.000003 0.000000 0.000006 0.000000 -12.564468 18.350046 0.000001 0.000001 0.000003 -0.000008 -4.448342 -0.000001 0.000002 -0.000001 
-0.117397 -184.514740 -80.664368 98.958212 -5.135663 -2.905271 0.000002 -9.563762 2.098717 29.611059 1.496016 1.032974 0.000002 -9.562885 1.686197 6.265368 0.105591 0.045217 -0.000001 -9.673446 0.846310 2.985975 -0.312625 -2.606290 -0.000001 -9.710434 -0.000078 -5.279245 0.169004 -1.677659 0.000001 -12.484810 -1.248463 -9.614677 0.927778 -0.123780 0.000000 -5.748105 -0.502913 -1.766782 5.546216 2.553258 0.000001 -5.682400 -1.001991 -0.627579 0.270023 0.897145 0.000001 -9.728062 0.000004 -0.000006 0.000000 -0.000000 0.000001 -8.917721 -5.270897 -0.000010 13.223133 8.441268 -18.341639 -0.000011 0.000007 -31.907802 -28.536831 -43.907670 -27.519985 -0.000005 0.000028 -29.216698 -4.762687 -2.658604 -22.582617 0.000023 0.000028 0.975746 -3.620602 15.093955 -4.292824 2.781343 -3.192082 0.000007 -0.000000 -0.000001 -11.447539 -0.000019 0.073408 0.000003 -0.000001 0.000001 0.000000 -8.917721 -5.270897 -0.000003 -8.022971 -6.923889 18.341629 0.000025 0.000018 -31.606533 35.995650 42.376075 27.519995 0.000004 -0.000022 -13.983753 8.410896 2.086097 22.582621 -0.000026 0.000028 0.189835 3.471895 -3.131538 4.292804 2.781359 -3.192078 -0.000002 0.000003 -0.000006 11.447546 -0.000007 0.073392 -0.000000 0.000000 -0.000003 -9.107881 0.000021 0.000002 -29.866894 35.319666 15.560875 0.000003 38.746082 -0.000030 4.934455 0.000001 0.000001 -0.000004 37.141571 0.000023 8.798155 16.260845 -16.285387 0.000023 3.208213 0.000022 0.000000 -0.000001 0.000002 0.000007 -0.000001 -12.564465 19.791621 0.000005 -0.000003 0.000011 -0.000000 -4.358130 -0.000001 0.000001 0.000001 9.107886 0.000016 -0.000011 -25.715860 -15.468753 1.189802 -0.000017 38.746063 -0.000015 17.930459 -0.000002 0.000001 0.000004 37.141590 -0.000009 -5.269768 -19.040090 -0.784788 0.000001 3.208221 -0.000025 -0.000000 -0.000000 0.000000 0.000009 -0.000001 -12.564466 18.363203 -0.000000 -0.000001 -0.000003 -0.000008 -4.448404 -0.000001 -0.000005 0.000001 
